<?xml version="1.0" encoding="UTF-8"?><svg id="Layer_2" xmlns="http://www.w3.org/2000/svg" xmlns:xlink="http://www.w3.org/1999/xlink" viewBox="0 0 983.59 1141.58"><defs><style>.cls-1,.cls-2,.cls-3,.cls-4,.cls-5,.cls-6,.cls-7{fill:none;}.cls-8{stroke:#8f0000;}.cls-8,.cls-9{fill:#8f0000;}.cls-8,.cls-2{stroke-width:2.88px;}.cls-8,.cls-10{stroke-miterlimit:10;}.cls-11{clip-path:url(#clippath);}.cls-12,.cls-10{fill:#e00;}.cls-13,.cls-14,.cls-15{fill:#fff;}.cls-16{fill:#fddbdb;}.cls-17{fill:#dedede;}.cls-18{fill:#5f0000;}.cls-2,.cls-14,.cls-3,.cls-4,.cls-5,.cls-6,.cls-7,.cls-15{stroke-linecap:round;stroke-linejoin:round;}.cls-2,.cls-6{stroke:#5f0000;}.cls-14,.cls-10,.cls-5{stroke:#e00;}.cls-14,.cls-3,.cls-4,.cls-5,.cls-6,.cls-7{stroke-width:4.32px;}.cls-10{stroke-width:4.47px;}.cls-3{stroke:#000;}.cls-4{stroke:#fff;}.cls-7,.cls-15{stroke:#aaa;}.cls-15{stroke-width:1.44px;}</style><clipPath id="clippath"><path class="cls-1" d="m617.71,752.87c-15.72,6.92-28.33,16.84-38.3,30.09-7.94,10.55-15.05,22.96-22.23,38.79,0,0-18.45-16.17-39.62-37.39-21.17-21.22-55.74-7.18-55.74-7.18l-.96-74.76,125.84-1.08s5.44,23.92,25.09,43.54l5.92,7.98Z"/></clipPath></defs><g id="Art"><path d="m82.1,1015.56c.15.59.16,1.18.16,1.79,0,7.77-9.45,9.12-15.98,9.12-25.4,0-44.34-15.78-44.34-20.59,0-.3,0-.68.12-1.01l-1.91,4.73c-.45,1.01-.79,2.36-.79,3.83,0,9.45,21.38,23.75,45.8,23.75,10.8,0,19.02-4.05,19.02-11.37,0-.56,0-1.01-.9-5.29l-1.17-4.94Z"/><path class="cls-12" d="m66.29,1026.46c6.53,0,15.98-1.35,15.98-9.12,0-.61-.02-1.2-.16-1.79l-3.89-16.89c-.9-3.71-1.69-5.4-8.22-8.67-5.06-2.59-16.09-6.86-19.36-6.86-3.04,0-3.94,3.94-7.54,3.94s-6.08-2.93-9.34-2.93-5.18,2.14-6.75,6.53c0,0-4.39,12.38-4.95,14.18-.11.34-.12.72-.12,1.01,0,4.81,18.95,20.59,44.34,20.59m16.99-5.96c.9,4.28.9,4.73.9,5.29,0,7.32-8.22,11.37-19.02,11.37-24.42,0-45.8-14.29-45.8-23.75,0-1.46.34-2.81.79-3.83-8.78.45-20.14,2.03-20.14,12.04,0,16.43,38.94,36.69,69.77,36.69,23.63,0,29.6-10.69,29.6-19.13,0-6.64-5.74-14.18-16.09-18.68"/><path d="m110.01,1001.7h18.81c7.12,0,12.99,5.39,12.99,12.51,0,4.8-2.86,8.73-7.01,10.73l8.19,14.5h-10.35l-7.06-13.21h-6.31v13.21h-9.27v-37.73Zm9.27,7.92v8.95h8.46c2.53,0,4.69-1.89,4.69-4.37s-2.16-4.58-4.69-4.58h-8.46Z"/><path d="m158.23,1039.97c-8.73,0-15.52-6.47-15.52-14.77s6.52-14.77,14.88-14.77,14.39,6.52,14.39,15.36v2.37h-20.32c1.13,2.75,3.77,4.53,7.01,4.53,2.37,0,4.37-.75,5.71-2.16l5.77,5.12c-3.61,3.02-7.12,4.31-11.91,4.31Zm-6.63-17.9h11.86c-.97-2.7-3.23-4.47-5.98-4.47s-5.01,1.67-5.88,4.47Z"/><path d="m195.98,1037.33c-2.21,1.62-4.85,2.53-7.65,2.53-8.03,0-14.55-6.47-14.55-14.72s6.63-14.66,14.82-14.66c2.59,0,5.12.7,7.28,1.94v-10.73l8.73-2.69v40.43h-8.62v-2.1Zm-6.25-4.9c2.48,0,4.53-.75,6.14-2.26v-9.97c-1.56-1.4-3.77-2.21-6.14-2.21-4.2,0-7.49,3.18-7.49,7.22s3.29,7.22,7.49,7.22Z"/><path d="m241.67,1024.66h-14.45v14.77h-9.27v-37.73h9.27v14.5h14.45v-14.5h9.27v37.73h-9.27v-14.77Z"/><path d="m272.39,1037.71c-2.26,1.56-4.64,2.21-7.65,2.21-6.36,0-10.62-3.99-10.62-9.11s4.04-8.79,11.1-8.79c2.7,0,5.12.54,7.17,1.62v-1.72c0-2.75-1.83-4.15-5.39-4.15-2.48,0-5.28.65-8.57,2.05l-2.59-6.52c4.31-1.89,8.25-2.91,11.75-2.91,8.73,0,13.53,3.83,13.53,10.78v18.27h-8.73v-1.72Zm-5.34-3.88c1.94,0,3.77-.49,5.34-1.46v-2.96c-1.67-.97-3.67-1.51-5.61-1.51-2.7,0-4.37,1.13-4.37,2.91,0,1.89,1.78,3.02,4.64,3.02Z"/><path d="m298.16,1039.86c-5.98,0-9.33-2.86-9.33-8.79v-12.88h-6.04v-7.28h6.04v-6.52l8.73-2.7v9.22h7.98v7.28h-7.98v10.89c0,2.43,1.29,3.34,3.93,3.34,1.29,0,2.64-.32,3.83-.86l-1.19,7.06c-1.62.75-3.94,1.24-5.98,1.24Z"/><path class="cls-13" d="m452.7,1096.93c44.8,56.57,122.72,42.49,122.72,42.49,139.75-42.49,324.51-23.93,324.51-23.93l-6.45-63.75c-.9-36.69,8.93-101.08,12.52-117.23,1.73-7.78,4.8-19.46,8.06-31.84,5.42-20.61,11.57-43.97,13.71-57.55,3.66-23.17-.75-42.61-13.86-61.19-12.39-17.56-28.18-24.87-31.21-26.16,1.82-9.08,2.26-16.5.38-24.03l-34.31,13.43c-90.96,23.04-206.21-9.13-206.21-9.13-7.98,8.98-9.95,14.51-10.36,15.96-1.92.63-11.11,3.72-20.41,8.16l-10.32,8.54c-23.75,21.05-33.73,42.65-33.73,42.65-8.4,15.26-16.99,34.39-22.69,56.69-12.45,48.66-30.86,102.67-30.89,103.32-.61,11.77-21.95,51.45-28.01,66.23l-33.45,57.31"/><path class="cls-18" d="m682.85,636c-5.2,5.42-11.1,10.23-18.56,11.14-7.09.87-15.75.36-22.34-2.5-3.7-1.6-11.61-4.69-12.57-9.12,2.5,11.54,10.41,17.88,22.34,21.11,5.47,1.48,11.03,2.67,16.66,3.19,2.11.19,21.33,1.13,21.29.83-1.09-7.51-4.87-17.31-6.82-24.64Z"/><line class="cls-5" x1="263.19" y1="791.73" x2="263.19" y2="848.92"/><path class="cls-5" d="m871.61,222.08h45.03c13.68,0,24.77,11.09,24.77,24.77v74.33"/><path class="cls-5" d="m66.54,473.09h-21.77c-16.85,0-30.51-13.66-30.51-30.51V115.05c0-16.85,13.66-30.51,30.51-30.51h402.68c16.85,0,30.51,13.66,30.51,30.51v58.28"/><path class="cls-16" d="m501.69,172.59c47.84-35.92,82.72-88.36,129.91-125.97,31.31-24.95,68.95-43.39,108.88-46.26,39.93-2.87,82.1,11.44,107.59,42.32,28.2,34.17,32.36,82,30.29,126.26-2.07,44.26-9.02,89.33,1.56,132.35,9.38,38.14,31.83,71.52,53.21,104.47,21.39,32.94,42.56,67.48,48.85,106.25,6.29,38.77-5.81,83.11-38.94,104.21-15.8,10.06-34.7,13.98-53.3,16.23-66.38,8.02-135.3-2.7-199.36,16.44-79.42,23.74-138.04,88.87-203,140.36-20.88,16.55-43.23,32.12-68.73,39.82-21.54,6.51-44.4,7.11-66.9,6.72-34.02-.59-68.27-3.36-101-12.67-111.65-31.75-193.07-143.5-196.39-259.52-3.21-112.4,63.06-222,160.32-278.39"/><polyline class="cls-14" points="263.19 676.07 196.6 676.07 196.6 173.33 717.55 173.33 717.55 221.71"/><rect x="229.1" y="236.08" width="506.35" height="503.44"/><g class="cls-11"><path class="cls-9" d="m611.79,762.18c-4.89-5.65-13.69-15.92-17.8-21.35-5.85-7.74-13.87-16.19-13.95-16.28l-.19-.2h-17.48c-3.77-2.47-7.8-5.53-11.19-9.07-10.17-10.61-24.65-21.05-36.13-28.95-3.21-2.21-5.19-2.03-6.28-1.49-.94.46-2.09,1.59-2.24,4.36-.41,7.22,6.39,22.1,22.74,32.54.03.02,1.42,1.02,3.3,2.61-4.24,0-8.48-.02-12.71-.04-4.45-.02-8.9-.04-13.35-.04h-2.95c-3.68-.02-7.49-.03-11.23.07-.86.02-1.72.02-2.59.02-3.28,0-6.67,0-9.87,1.15-3.91,1.39-7.21,5.18-7.67,8.82-.31,2.42.62,4.61,2.61,6.26-1.67,1.28-5.27,4.8-2.6,9.99,1,1.94,2.55,2.98,4.37,3.46-1.38.82-3.11,2.17-3.64,4.01-.4,1.38-.06,2.8.99,4.2,3.89,5.18,19.86,1.87,21.42,1.53,1.13.1,11.45,1.05,14.43,1.36,1.49.15,3.81,1.21,6.48,2.43,2.72,1.24,5.81,2.65,9.2,3.69,1.34,1.8,14.28,19.09,25.01,29.83,5.3,5.3,11.3,9.28,17.29,12.28"/><path class="cls-6" d="m546.7,754.59c-1.69-2.74-2.7-13.22-6.49-19.97-1.92-3.42-7.88-7.78-10.54-10.16h-22.48"/><path class="cls-6" d="m526.95,770.72s13.7,18.54,25.07,29.92c5.26,5.26,11.25,9.27,17.37,12.3"/><path class="cls-6" d="m525.55,733.94c-1.99-.43-4-.81-5.65-1.01-5.27-.63-10.32.63-17.91,1.9-7.59,1.26-24.99,5.79-24.99,5.79-6.53-4.43-1.69-12.4,4.18-14.5,3.93-1.4,8.17-1.03,12.26-1.13,4.72-.12,9.45-.07,14.17-.07,9.27,0,18.54.09,27.81.09"/><path class="cls-6" d="m477,740.61s-6.26,3.56-3.12,9.67c3.14,6.11,12.62,2.53,17.89,1.47,5.27-1.05,22.54-4.57,22.54-4.57,0,0,3.71,1.1,7.7,2.22"/><path class="cls-6" d="m479.74,753.73s-8,3.09-4.21,8.14c3.79,5.06,20.86,1.26,20.86,1.26,0,0,11.38,1.05,14.54,1.37,3.16.32,9.06,4.11,16.01,6.22"/><path class="cls-2" d="m526.95,770.72s-.21-14.75,4.42-18.96c0,0-.21-10.53,2.74-16.86,0,0,.76-6.49,2.8-8.51"/><path d="m471.76,734.14c-.25,1.97.17,3.8,1.18,5.39l94.85-1.39c-5.72-7.35-12.04-13.15-12.12-13.23h0l-76.1-.44c-4.08,1.8-7.3,5.73-7.81,9.68Z"/></g><rect class="cls-14" x="244.98" y="221.71" width="539.46" height="502.74"/><path d="m617.02,509.55c-.22,3.98-.21,8.16.3,11.87.75,5.42,4.32,10.12,9.34,12.27l3.76,1.61,4.53-10.58-3.76-1.61c-1.34-.58-2.27-1.8-2.47-3.26-.37-2.72-.43-6.26-.18-10.3"/><rect class="cls-10" x="244.68" y="221.71" width="539.76" height="93.96"/><circle class="cls-13" cx="672.9" cy="269.3" r="12.81"/><circle class="cls-13" cx="722.63" cy="269.3" r="12.81"/><rect class="cls-5" x="616.9" y="374.81" width="106.5" height="106.5" transform="translate(1098.21 -242.09) rotate(90)"/><rect class="cls-5" x="460.99" y="374.81" width="106.5" height="106.5" transform="translate(942.3 -86.18) rotate(90)"/><rect class="cls-5" x="460.99" y="556.89" width="106.5" height="106.5" transform="translate(1124.38 95.9) rotate(90)"/><rect class="cls-5" x="305.09" y="556.89" width="106.5" height="106.5" transform="translate(968.48 251.81) rotate(90)"/><polyline class="cls-5" points="400.21 389.47 438.88 428.14 400.21 466.81"/><path class="cls-5" d="m359.69,554.62v-98.86c0-15.26,12.37-27.62,27.62-27.62h51.18"/><path class="cls-9" d="m825.74,706.21c-.03-.11-3.41-11.39-3.41-14.69s-1.66-35.88-1.73-37.25l-3.09-94.53c-2.07-31.8-14.12-56.72-35.81-74.07-48.96-39.17-131.63-26.69-132.46-26.56-.21.03-.38.15-.5.33-.46.72-11.15,17.83-9.99,28.26,1.3,11.74.91,20.97-1.1,26l-.4,1.01c-2.51,6.31-10.15,25.5-15.47,30.82-5.32,5.32-9.77,10.53-5.76,15.88l9.16,10.31c.16.18.38.25.61.22.58,9,2.8,42.77,3.8,49.8.13.93.25,1.95.38,3.04.96,8.38,2.42,21.04,14.91,27.28,13.9,6.95,34.89,6.95,43.85,6.95.09,0,.18-.02.26-.05,1.01,10.23.72,20.75.44,30.94-.13,4.65-.26,9.46-.28,14.21,0,.06,0,.11.02.17.1.43,10.93,43.17,64.46,43.17s71.89-40.34,72.07-40.75c.07-.16.08-.33.03-.5Z"/><path class="cls-18" d="m820.73,697.6c.39,7.94,5.04,18.13,5.04,18.13l-55.42-1.07c-24.4-3.7-80.97-3.38-80.97-3.38.6-7.56.72-19.44.72-19.44,0,0,13.14-1.6,20.42-1.47,36.03.68,71.67,10.07,107.75,4.72,1.38-.2,2.72-.42,4.03-.63l-1.57,3.14Z"/><circle class="cls-5" cx="48.95" cy="123.36" r="11.29"/><circle class="cls-5" cx="442.67" cy="123.36" r="11.29"/><circle class="cls-5" cx="48.95" cy="435.06" r="11.29"/><circle class="cls-5" cx="911.39" cy="254.84" r="11.29"/><circle class="cls-5" cx="911.39" cy="473.08" r="11.29"/><path class="cls-5" d="m941.41,321.18v159.9c0,13.68-11.09,24.77-24.77,24.77h-148.51"/><circle class="cls-5" cx="295.52" cy="902.16" r="11.29"/><circle class="cls-5" cx="397.02" cy="902.16" r="11.29"/><path class="cls-5" d="m263.19,848.92v53.99c0,16.83,13.64,30.47,30.47,30.47h104.36c16.83,0,30.47-13.64,30.47-30.47v-178.46"/><path class="cls-17" d="m626.28,757.16s77.08,1.39,78.52,120.53c1.44,119.14,0,212.44,91.87,212.44s103.54,24.93,103.54,24.93c0,0-10.12-96.89-.3-146.36,9.83-49.47,26.56-115.21,26.56-115.21,0,0,10.3-55.76-16.56-75.54-4.67-3.44-9.95-9.11-14.85-12.33-23.28-15.32-46.3-25.01-46.3-25.01l-194.18,6.58-28.31,9.97Z"/><path d="m631.26,753.99c6.41,3.11,14.71,4.03,21.53,7.32,15.64,7.53,29.78,17.86,42.99,29.04,19.94,16.88,37.35,36.52,57.5,53.16,22.7,18.75,46.38,33.15,76.65,29.33,21.72-2.73,45.47-15.09,46.28-39.68.3-9.23-16-16.11-15.91-25.24.09-8.44,2.32-16.64,4.35-24.77,3.44-13.75,4.58-22.91,2.29-32.07,0,0-218.86-8.75-224.76-6.88-5.9,1.86-10.93,9.8-10.93,9.8Z"/><path class="cls-8" d="m576.04,731.96s-14.54-6.11-24.23-16.22c-9.69-10.11-23.18-20.02-36.03-28.87-12.85-8.85-10.11,18.33,14.96,34.34,0,0,8.64,6.11,12.43,12.85,3.79,6.74,7.59,18.33,9.27,21.07"/><path class="cls-6" d="m676.8,567.24s10.31,17.18,25.2,0c.91-1.05,1.86-2.39,2.8-3.96"/><path class="cls-3" d="m704.8,563.28c10.37-17.22,20.85-62.19-5.25-64.25-15.61-1.23-22.86,22.61-28.47,33.84,0,0-13.17-9.74-9.74-29.21,3.44-19.47-3.44-24.06-9.16-35.51-5.73-11.46-10.31-21.76-3.44-36.66,6.87-14.89,5.73-19.47,4.58-29.78-1.15-10.31,14.89-17.18,25.2-16.04,10.31,1.15,24.06,3.44,34.37-6.87,10.31-10.31,24.06-9.16,36.66-5.73,12.6,3.44,22.91,9.16,37.8,8.02,14.89-1.15,29.78,2.29,37.8,17.18,8.02,14.89,6.87,20.62,22.91,27.49,16.04,6.87,32.07,9.16,29.78,41.24-2.29,32.07-3.44,32.07,2.29,44.67,5.73,12.6,0,33.22-11.46,52.69-11.46,19.47-35.51,54.98-38.95,72.17,0,0-1.49,7.46-1.47,11.55,0,1.45-.83,2.76-2.16,3.34-9.04,3.96-41.12,16.27-67.4,4.59-30.93-13.75-50.4-66.44-53.84-91.64"/><path class="cls-6" d="m648.31,459.83s-11.03,17.49-9.88,27.8c1.15,10.31,1.15,20.62-1.15,26.35-2.29,5.73-10.31,26.35-16.04,32.07-5.73,5.73-9.16,10.31-5.73,14.89l9.16,10.31"/><path class="cls-6" d="m626.28,583.96c1.06,15.43,2.36,33.34,2.98,37.7,1.15,8.02,1.15,22.91,14.89,29.78,13.75,6.87,34.37,6.87,43.53,6.87"/><path class="cls-6" d="m624.68,559.79s.72,11.21,1.6,24.16"/><path class="cls-15" d="m870.32,716.98c2.22,1.68,11.24,8.91,13.24,16.93,2.29,9.16,1.15,18.33-2.29,32.07-2.03,8.13-4.27,16.33-4.35,24.77-.09,9.13,2.09,18.19,1.78,27.41-.57,17.3-7.66,31.82-24.86,37.34-20.31,6.53-41.99-1.52-59.52-11.81-37.1-21.79-65.92-55.22-103.86-76.01-11.94-6.55-45.4-30.19-56.63-13.16,0,0,1.15-5.73,10.31-16.04,8.4-9.45,17.33-18.84,28.04-25.72,12.13-7.8,24.14-9.05,38.33-8.79,36.03.68,71.67,10.07,107.75,4.72,2.07-.31,4.06-.63,5.96-.97l-.23-1.33s-3.44-11.46-3.44-14.89c0-1.76-.46-11.53-.9-20.62,17.94,1.29,40.43.81,53.01,16.12,3.58,4.36,5.78,10.07,5.09,15.67-.61,4.98-3.08,9.29-6.5,12.99"/><path class="cls-17" d="m819.66,670.91s24.13-2.08,40.78,7.29c15.84,8.91-14.49,28.84-34.73,28.51l-6.05-12.21v-23.59Z"/><path class="cls-6" d="m688.83,704.13c.05-22.42,2.82-44.74-4.58-66.44"/><path class="cls-7" d="m633.84,754.53s1.15-5.73,10.31-16.04c8.4-9.45,17.33-18.84,28.04-25.72,5.91-3.8,11.79-6.05,17.91-7.32"/><path class="cls-7" d="m883.06,758.18c23.27,9.58,42.15,34.34,45.28,59.11,1.52,12.04.25,24.26-1.86,36.21-6.87,38.85-20.24,76.26-26.56,115.21-7.88,48.53-7.75,98.26.02,146.8"/><path class="cls-7" d="m870.32,716.98c2.22,1.68,11.24,8.91,13.24,16.93,2.29,9.16,1.15,18.33-2.29,32.07-2.03,8.13-4.27,16.33-4.35,24.77-.09,9.13,2.09,18.19,1.78,27.41-.57,17.3-7.66,31.82-24.86,37.34-20.31,6.53-41.99-1.52-59.52-11.81-37.1-21.79-65.92-55.22-103.86-76.01-11.94-6.55-45.4-30.19-56.63-13.16"/><path class="cls-7" d="m673.93,728.18c26.65-16.72,59.59-2.23,86.82,4.93,17.03,4.48,45.13,12.1,60.95.8"/><path class="cls-7" d="m675.13,741.83c10.24-3.25,21.06,1.97,30.53,7.03,20.31,10.85,39.61,24.82,62.02,31.14,13.96,3.94,29.43,4.37,42.56-1.81"/><path d="m881.46,511.09c-4.74-10.42-4.64-11.63-3.08-31.84.27-3.46.58-7.45.91-12.14,2.11-29.6-11.26-34.91-25.52-40.57-1.7-.67-3.42-1.36-5.14-2.1-11.87-5.09-13.85-9.37-17.8-17.89-1.2-2.59-2.56-5.52-4.41-8.96-7.19-13.35-20.37-19.37-39.18-17.93-10.63.82-18.83-1.95-27.55-4.9-3.14-1.06-6.38-2.15-9.77-3.08-10.78-2.94-26.45-5.5-38.05,6.1-9.22,9.23-21.5,7.81-31.36,6.67l-1.83-.21c-7.79-.88-17.61,2.42-22.85,7.65-2.98,2.98-4.34,6.43-3.95,9.98l.23,2.01c1,8.69,1.55,13.48-4.69,27.01-6.9,14.96-2.92,25.15,3.46,37.9,1.26,2.52,2.54,4.66,3.79,6.74,4.39,7.33,7.85,13.11,5.25,27.87-3.57,20.21,10.16,30.52,10.3,30.62.34.25.78.34,1.19.24.41-.1.76-.37.95-.76.97-1.94,2.02-4.33,3.08-6.72,5.08-11.51,12.04-27.25,24-26.34,5.63.45,9.74,3.1,12.22,7.88,6.97,13.5.04,40.58-8,54.06-.25.42-.26.91-.07,1.33-.13.25-.18.54-.14.84,3.46,25.41,23.06,78.71,54.68,92.76,7.51,3.34,16.12,5.03,25.59,5.03,18.98,0,36.38-6.73,42.97-9.62,1.85-.81,3.03-2.64,3.02-4.67-.02-3.68,1.29-10.48,1.44-11.26,2.62-13.08,17.55-37.2,29.61-56.69,3.4-5.49,6.61-10.68,9.17-15.03,12.74-21.67,17.05-41.86,11.52-54.02Z"/><path class="cls-13" d="m687.87,503.93c-14.1-3.9-46.3-12.69-63.65-14.01-1.19-.09-2.08-1.13-1.99-2.32.09-1.19,1.14-2.09,2.32-1.99,18.56,1.41,53.24,11.03,66.29,14.65l1.9.53,2.61.73s-2.62.62-5.44,3.06l-2.04-.66Z"/><path class="cls-7" d="m819.66,670.91c17.94,1.29,40.43.81,53.01,16.12,3.58,4.36,5.78,10.07,5.09,15.67-1.64,13.29-16.45,21.79-27.42,26.63"/><line class="cls-4" x1="293.15" y1="271.02" x2="563.26" y2="271.02"/><path d="m628.55,509.55c.17-2.77.48-5.77.93-8.9,18.8,1.92,44.36,8.95,51.8,11.07l2.12.72s3.66-6.25,8.76-9.55l-5.47-1.58c-1.4-.42-34.62-10.27-57.96-12.29-5-.44-9.56,3.13-10.35,8.12-.48,3.04-1.09,7.59-1.35,12.42"/><path class="cls-18" d="m821.93,707.04c-.36-1.2-3.53-11.86-3.53-15.51,0-3.34-1.56-33.84-1.58-34.18l3.87-1.42c.07,1.38,2.03,32.15,2.03,35.6,0,2.27,2.05,9.96,3.35,14.27l-4.13,1.24Z"/><path class="cls-7" d="m690.1,705.45c6.44-1.34,13.14-1.6,20.42-1.47,36.03.68,71.67,10.07,107.75,4.72,21.57-3.2,34.22-8.06,39.91-14.21"/><path class="cls-7" d="m452.7,1096.93c41.29-56.78,63.56-125.34,83.99-191.77,7.88-25.62,14.44-51.67,25.2-76.3,6.33-14.48,13.73-28.91,23.26-41.58,12.53-16.64,28.9-26.75,48.71-32.67"/><path class="cls-7" d="m575.42,1139.42c21.25-39.18,42.5-78.2,58.44-119.93,15.87-41.53,27.33-84.73,34.13-128.66,4.01-25.88,4.51-52.37-6.32-77.44-13.36-30.93-48.96-51.64-76.51-26.12"/></g></svg>