<?xml version="1.0" encoding="UTF-8"?><svg id="Layer_2" xmlns="http://www.w3.org/2000/svg" viewBox="0 0 294.14 374.4"><defs><style>.cls-1,.cls-2{fill:#ebecec;}.cls-3{fill:#e00;}.cls-4{fill:#e5e5e4;}.cls-5{fill:#b8b8b8;}.cls-6{fill:#b8b9b9;}.cls-7{fill:#a30000;}.cls-8{fill:#939393;}.cls-9{fill:#c00;}.cls-10{fill:#dee4e7;}.cls-2{opacity:.54;}</style></defs><g id="Red_Hat_Satellite"><g id="LINUX_CLIP_GROUP"><polygon class="cls-10" points="40.39 288.67 146.48 350.32 253.47 288.69 147.19 227.01 40.39 288.67"/><path class="cls-10" d="m294.13,288.64s-.01-.05-.02-.07c0-.01,0-.03-.01-.04,0,0,0,0-.01-.02-.01-.02-.03-.03-.05-.05-.02-.02-.03-.04-.06-.05,0,0,0,0-.01-.01l-140.34-81.56h0s-5.71-3.33-5.71-3.33L.07,288.8l2.36,1.38s0,0,.01.01l144.64,84.16s0,0,0,0c.05.03.1.04.16.04,0,0,.01,0,.02,0,0,0,0,0,0,0s0,0,0,0c0,0,.01,0,.02,0,.05,0,.11-.01.16-.04,0,0,0,0,0,0l146.52-85.33s0,0,0,0h0c.05-.03.09-.07.12-.12,0,0,0,0,.01-.01,0-.01,0-.03.01-.04,0-.02.02-.05.02-.07,0-.02,0-.04,0-.07,0-.02,0-.05,0-.07Zm-146.87,84.99L6.49,291.72l146.42-84.47,140.17,81.46-145.81,84.92Z"/><polygon class="cls-2" points="147.07 .49 147.11 167.15 294.14 252.59 294.09 85.93 147.07 .49"/><polygon class="cls-7" points="153.89 3.33 5.71 88.96 5.71 255.74 153.89 170.11 153.89 3.33"/><polygon class="cls-9" points="5.71 88.96 0 85.77 .05 252.41 5.71 255.74 5.71 88.96"/><polygon class="cls-3" points="148.18 0 153.89 3.33 5.71 88.96 0 85.63 148.18 0"/><polygon class="cls-8" points="40.65 194.03 146 255.25 252.24 194.05 146.7 132.8 40.65 194.03"/><polygon class="cls-4" points="40.65 194.03 40.68 227.5 146.03 288.72 146 255.25 40.65 194.03"/><polygon class="cls-5" points="146 255.25 146.03 288.72 252.47 227.38 252.44 193.91 146 255.25"/><polygon class="cls-3" points="136.92 257.61 136.92 277.85 131.73 274.86 131.73 254.64 136.92 257.61"/><polygon class="cls-3" points="125.35 250.93 129.98 253.65 129.98 273.87 125.39 271.16 125.35 250.93"/><ellipse class="cls-3" cx="47.52" cy="215.36" rx="2.35" ry="3.33" transform="translate(-37.11 11.71) rotate(-10.12)"/><ellipse class="cls-3" cx="57.61" cy="220.67" rx="2.35" ry="3.33" transform="translate(-37.89 13.56) rotate(-10.12)"/><polygon class="cls-8" points="40.65 153.85 146 215.08 252.24 153.87 146.7 92.63 40.65 153.85"/><polygon class="cls-4" points="40.65 153.85 40.68 187.32 146.03 248.55 146 215.08 40.65 153.85"/><polygon class="cls-5" points="146 215.08 146.03 248.55 252.47 187.21 252.44 153.74 146 215.08"/><polygon class="cls-6" points="136.92 217.44 136.92 237.68 131.73 234.69 131.73 214.47 136.92 217.44"/><polygon class="cls-6" points="125.35 210.76 129.98 213.48 129.98 233.7 125.39 230.99 125.35 210.76"/><ellipse class="cls-6" cx="47.52" cy="175.19" rx="2.35" ry="3.33" transform="translate(-30.05 11.08) rotate(-10.12)"/><ellipse class="cls-6" cx="57.61" cy="180.49" rx="2.35" ry="3.33" transform="translate(-30.83 12.94) rotate(-10.12)"/><polygon class="cls-1" points="40.5 113.68 145.85 174.91 252.09 113.7 146.55 52.45 40.5 113.68"/><polygon class="cls-4" points="40.5 113.68 40.53 147.15 145.88 208.38 145.85 174.91 40.5 113.68"/><polygon class="cls-5" points="145.85 174.91 145.88 208.38 252.32 147.04 252.29 113.57 145.85 174.91"/><polygon class="cls-6" points="136.77 177.27 136.77 197.5 131.58 194.52 131.58 174.3 136.77 177.27"/><polygon class="cls-6" points="125.2 170.59 129.83 173.31 129.83 193.53 125.24 190.82 125.2 170.59"/><ellipse class="cls-6" cx="47.37" cy="135.02" rx="2.35" ry="3.33" transform="translate(-22.99 10.43) rotate(-10.12)"/><ellipse class="cls-6" cx="57.46" cy="140.32" rx="2.35" ry="3.33" transform="translate(-23.77 12.28) rotate(-10.12)"/><polygon class="cls-2" points="294.14 85.75 294.09 252.41 147.07 337.85 147.11 171.19 294.14 85.75"/><polygon class="cls-2" points="0 85.75 .05 252.41 147.07 337.85 147.02 171.19 0 85.75"/></g></g></svg>