<?xml version="1.0" encoding="UTF-8"?>
<svg width="30px" height="30px" viewBox="0 0 30 30" version="1.1" xmlns="http://www.w3.org/2000/svg" xmlns:xlink="http://www.w3.org/1999/xlink">
    <title>Icon-Red_Hat-Software_and_technologies-App_Secured-A-Red-RGB</title>
    <g id="Dashboard" stroke="none" stroke-width="1" fill="none" fill-rule="evenodd">
        <g id="Dashboard---concept-1-Copy-35" transform="translate(-346.000000, -1187.000000)" fill="#151515" fill-rule="nonzero">
            <g id="Icon-Red_Hat-Software_and_technologies-App_Secured-A-Red-RGB" transform="translate(346.000000, 1187.000000)">
                <g id="Group">
                    <path d="M28.9285714,0.407053435 L1.07142857,0.407053435 C0.894367895,0.404215631 0.723698112,0.473262285 0.598480198,0.598480198 C0.473262285,0.723698112 0.404215631,0.894367895 0.407053435,1.07142857 L0.407053435,28.9285714 C0.404215631,29.1056321 0.473262285,29.2763019 0.598480198,29.4015198 C0.723698112,29.5267377 0.894367895,29.5957844 1.07142857,29.5929466 L19.2857143,29.5929466 C19.6525892,29.5929466 19.95,29.2954463 19.95,28.9285714 C19.95,28.5616966 19.6525892,28.2642857 19.2857143,28.2642857 L1.73571429,28.2642857 L1.73571429,1.73571429 L28.2642857,1.73571429 L28.2642857,18.2142857 C28.2642857,18.5811606 28.5616966,18.8785714 28.9285714,18.8785714 C29.2954463,18.8785714 29.5929466,18.5811606 29.5929466,18.2142857 L29.5929466,1.07142857 C29.5957844,0.894367895 29.5267377,0.723698112 29.4015198,0.598480198 C29.2763019,0.473262285 29.1056321,0.404215631 28.9285714,0.407053435 Z" id="Path"></path>
                    <path d="M29.0678571,21.4285714 L25.8535714,20.7428571 C25.7619543,20.7213964 25.6666172,20.7213964 25.575,20.7428571 L22.3607143,21.4285714 C22.0529868,21.4945557 21.8337956,21.7674264 21.8357018,22.0821429 L21.8357018,25.7892857 C21.8357018,27.9313616 23.5722099,29.6678571 25.7142857,29.6678571 C27.8563616,29.6678571 29.5928571,27.9313616 29.5928571,25.7892857 L29.5928571,22.0607143 C29.5848103,21.754055 29.3678255,21.4927875 29.0678571,21.4285714 Z" id="Path"></path>
                </g>
                <path d="M22.496,5 C22.2207777,5.00462527 21.9999653,5.24215137 22,5.53354332 C22.0319185,5.80013993 22.2461507,6 22.5,6 C22.7538493,6 22.9680815,5.80013993 23,5.53354332 C23,5.23887548 22.7743515,5 22.496,5 Z" id="Path"></path>
                <path d="M24.496,5 C24.2207777,5.00462527 23.9999653,5.24215137 24,5.53354332 C24.0319185,5.80013993 24.2461507,6 24.5,6 C24.7538493,6 24.9680815,5.80013993 25,5.53354332 C25,5.23887548 24.7743515,5 24.496,5 Z" id="Path"></path>
            </g>
        </g>
    </g>
</svg>