<?xml version="1.0" encoding="UTF-8"?>
<svg width="22px" height="32px" viewBox="0 0 22 32" version="1.1" xmlns="http://www.w3.org/2000/svg" xmlns:xlink="http://www.w3.org/1999/xlink">
    <title>Icon-Red_Hat-Software_and_Technologies-Automation-A-Red-RGB</title>
    <defs>
        <filter id="filter-1">
            <feColorMatrix in="SourceGraphic" type="matrix" values="0 0 0 0 0.082353 0 0 0 0 0.082353 0 0 0 0 0.082353 0 0 0 1.000000 0"></feColorMatrix>
        </filter>
    </defs>
    <g id="Dashboard" stroke="none" stroke-width="1" fill="none" fill-rule="evenodd">
        <g id="Icon-Red_Hat-Software_and_Technologies-Automation-A-Red-RGB" transform="translate(-850.000000, -1189.000000)" filter="url(#filter-1)">
            <g transform="translate(850.000000, 1189.000000)">
                <g id="Group" fill="#EE0000" fill-rule="nonzero">
                    <path d="M7.54411765,0.434285714 L0.838235294,0.434285714 C0.453685053,0.434285714 0.140221616,0.749682373 0.134117647,1.14285714 L0.134117647,8 C0.140221616,8.39317477 0.453685053,8.70857143 0.838235294,8.70857143 L7.54411765,8.70857143 C7.92866789,8.70857143 8.24213133,8.39317477 8.24823529,8 L8.24823529,1.14285714 C8.24213133,0.749682373 7.92866789,0.434285714 7.54411765,0.434285714 Z M6.84,7.29142857 L1.54235294,7.29142857 L1.54235294,1.85142857 L6.84,1.85142857 L6.84,7.29142857 Z" id="Shape"></path>
                    <path d="M7.54411765,11.8628571 L0.838235294,11.8628571 C0.453685053,11.8628571 0.140221616,12.1782538 0.134117647,12.5714286 L0.134117647,19.4285714 C0.140221616,19.8217462 0.453685053,20.1371429 0.838235294,20.1371429 L7.54411765,20.1371429 C7.92866789,20.1371429 8.24213133,19.8217462 8.24823529,19.4285714 L8.24823529,12.5714286 C8.24213133,12.1782538 7.92866789,11.8628571 7.54411765,11.8628571 Z M6.84,18.72 L1.54235294,18.72 L1.54235294,13.28 L6.84,13.28 L6.84,18.72 Z" id="Shape"></path>
                    <rect id="Rectangle" x="0.145294118" y="23.2914286" width="8.10294118" height="8.28571429" rx="0.63"></rect>
                    <path d="M18.1617647,22.1485714 C17.7772145,22.1485714 17.463751,22.4639681 17.4576471,22.8571429 L17.4576471,24 C17.45766,25.4977627 16.2735344,26.7137069 14.8088235,26.72 L13.1435294,26.72 L14.1829412,25.6457143 C14.4545353,25.367994 14.4545353,24.9177203 14.1829412,24.64 C13.911347,24.3622797 13.4710059,24.3622797 13.1994118,24.64 L10.9641176,26.9257143 C10.8332239,27.0453177 10.7563934,27.2148494 10.7517647,27.3942857 C10.7544313,27.5941748 10.8301881,27.7858001 10.9641176,27.9314286 L13.1994118,30.2171429 C13.4729286,30.4900754 13.9094243,30.4900754 14.1829412,30.2171429 C14.3168274,30.0856841 14.3925083,29.9040875 14.3925083,29.7142857 C14.3925083,29.524484 14.3168274,29.3428873 14.1829412,29.2114286 L13.1435294,28.1371429 L14.8088235,28.1371429 C17.0451178,28.1371515 18.8597218,26.2867283 18.8658824,24 L18.8658824,22.8571429 C18.8597784,22.4639681 18.5463149,22.1485714 18.1617647,22.1485714 L18.1617647,22.1485714 Z" id="Path"></path>
                    <path d="M11.4558824,5.28 L14.8088235,5.28 C16.2735344,5.28629312 17.45766,6.50223732 17.4576471,8 L17.4576471,9.14285714 C17.4576471,9.54050216 17.7728913,9.86285714 18.1617647,9.86285714 C18.5506381,9.86285714 18.8658824,9.54050216 18.8658824,9.14285714 L18.8658824,8 C18.8597218,5.71327167 17.0451178,3.86285714 14.8088235,3.86285714 L11.4558824,3.86285714 C11.0731815,3.86285714 10.7629412,4.18009538 10.7629412,4.57142857 C10.7629412,4.96276177 11.0731815,5.28 11.4558824,5.28 L11.4558824,5.28 Z" id="Path"></path>
                </g>
                <path d="M14.6204657,16.6984371 L15.138661,16.6984371 C15.2068768,16.9887784 15.3209606,17.2663825 15.4766144,17.5207904 L15.1161307,17.8925392 C14.8423825,18.1662874 14.8423825,18.610121 15.1161308,18.8838692 C15.389879,19.1576175 15.8337126,19.1576175 16.1074608,18.8838693 L16.4792096,18.5233856 C16.7306416,18.6769644 17.0042039,18.7909487 17.2902978,18.861339 L17.2902978,19.3795343 C17.3352435,19.7341525 17.6369122,20 17.9943674,20 C18.3518227,20 18.6534914,19.7341525 18.6984371,19.3795343 L18.6984371,18.861339 C18.9887784,18.7931232 19.2663825,18.6790394 19.5207904,18.5233856 L19.8925392,18.8838693 C20.0696233,19.0609533 20.3277289,19.1301125 20.5696302,19.0652953 C20.8115315,19.000478 21.000478,18.8115315 21.0652953,18.5696302 C21.1301125,18.3277289 21.0609533,18.0696233 20.8838693,17.8925392 L20.5233856,17.5207904 C20.6790394,17.2663825 20.7931232,16.9887784 20.861339,16.6984371 L21.3795343,16.6984371 C21.7341525,16.6534914 22,16.3518227 22,15.9943674 C22,15.6369122 21.7341525,15.3352435 21.3795343,15.2902978 L20.861339,15.2902978 C20.7909487,15.0042039 20.6769644,14.7306416 20.5233856,14.4792096 L20.8838693,14.1074608 C21.5372459,13.4766144 20.5233856,12.4627541 19.8925392,13.1161307 L19.5207904,13.4766144 C19.2663825,13.3209606 18.9887784,13.2068768 18.6984371,13.138661 L18.6984371,12.6204657 C18.6534914,12.2658475 18.3518227,12 17.9943674,12 C17.6369122,12 17.3352435,12.2658475 17.2902978,12.6204657 L17.2902978,13.138661 C17.0042039,13.2090513 16.7306416,13.3230356 16.4792096,13.4766144 L16.1074608,13.1161307 C15.4766144,12.4627541 14.4627541,13.4766144 15.1161307,14.1074608 L15.4766144,14.4792096 C15.3230356,14.7306416 15.2090513,15.0042039 15.138661,15.2902978 L14.6204657,15.2902978 C14.2658475,15.3352435 14,15.6369122 14,15.9943674 C14,16.3518227 14.2658475,16.6534914 14.6204657,16.6984371 Z M18,14.4454142 C18.8043974,14.5140758 19.4223706,15.1870449 19.4223706,15.9943674 C19.4223706,16.8016899 18.8043974,17.4746591 18,17.5433207 C17.1956026,17.4746591 16.5776294,16.8016899 16.5776294,15.9943674 C16.5776294,15.1870449 17.1956026,14.5140758 18,14.4454142 L18,14.4454142 Z" id="Shape" fill="#EE0000" fill-rule="nonzero"></path>
            </g>
        </g>
    </g>
</svg>