<?xml version="1.0" encoding="utf-8"?>
<!-- Generator: Adobe Illustrator 24.0.2, SVG Export Plug-In . SVG Version: 6.00 Build 0)  -->
<svg version="1.1" id="Layer_1" xmlns="http://www.w3.org/2000/svg" xmlns:xlink="http://www.w3.org/1999/xlink" x="0px" y="0px"
	 viewBox="0 0 383 400" style="enable-background:new 0 0 383 400;" xml:space="preserve">
<style type="text/css">
	.st0{fill:#EE0000;}
	.st1{fill:#FFFFFF;}
	.st2{fill:#CCCCCC;}
</style>
<path class="st0" d="M208.61,81.35c1.76-0.02,3.19-1.45,3.21-3.21V65.21c-0.05-1.74-1.47-3.13-3.21-3.13h-94.19
	c-1.75-0.02-3.19,1.38-3.21,3.12c0,0,0,0,0,0v59.94c0,1.77,1.44,3.21,3.21,3.21c1.77,0,3.21-1.44,3.21-3.21V68.5h87.77v9.55
	c-0.05,1.77,1.35,3.25,3.12,3.3C208.56,81.35,208.58,81.35,208.61,81.35z M114.42,147.71c-1.75-0.02-3.19,1.38-3.21,3.12
	c0,0.03,0,0.06,0,0.09v8.56c0,1.77,1.44,3.21,3.21,3.21h94.19c1.76-0.02,3.19-1.45,3.21-3.21v-51.46c0-1.77-1.44-3.21-3.21-3.21
	c-1.77,0-3.21,1.44-3.21,3.21v48.25h-87.77v-5.44C117.59,149.1,116.16,147.71,114.42,147.71z M214.91,81.78l-51.38,50.69
	l-21.41-21.41c-1.23-1.24-3.24-1.25-4.48-0.01c0,0-0.01,0.01-0.01,0.01l-29.76,28.99c-1.28,1.23-1.31,3.26-0.08,4.54
	c0.62,0.64,1.47,0.99,2.35,0.98c0.84-0.01,1.64-0.35,2.23-0.94l27.44-26.93l21.41,21.41c1.25,1.25,3.28,1.25,4.54,0l53.52-52.92
	c1.25-1.25,1.25-3.28,0-4.54C218.01,80.54,216.11,80.6,214.91,81.78z M132.62,78.05v17.13c0,1.77,1.44,3.21,3.21,3.21
	c1.77,0,3.21-1.44,3.21-3.21V78.05c0-1.77-1.44-3.21-3.21-3.21C134.06,74.84,132.62,76.28,132.62,78.05z M158.31,78.05v34.25
	c0,1.77,1.44,3.21,3.21,3.21c1.77,0,3.21-1.44,3.21-3.21V78.05c0-1.77-1.44-3.21-3.21-3.21C159.74,74.84,158.31,76.28,158.31,78.05z
	 M184,78.05v17.13c0,1.77,1.44,3.21,3.21,3.21c1.77,0,3.21-1.44,3.21-3.21V78.05c0-1.77-1.44-3.21-3.21-3.21
	C185.43,74.84,184,76.28,184,78.05z"/>
<g>
	<path class="st1" d="M180.52,289.74l4.07-19.18c10.85-12.61,9.42-31.62-3.19-42.46c-12.61-10.85-31.62-9.42-42.46,3.19
		c-9.71,11.29-9.71,27.99,0,39.28l4.07,19.38c0.83,3.82,4.19,6.55,8.1,6.59h21.31C176.38,296.45,179.75,293.63,180.52,289.74z
		 M143,266.49c-8.53-10.36-7.05-25.67,3.31-34.2c10.36-8.53,25.67-7.05,34.2,3.31c3.57,4.34,5.53,9.77,5.54,15.39
		c0.04,5.66-1.92,11.15-5.54,15.5H143z M174.82,288.65c-0.26,1.13-1.25,1.94-2.4,1.98H151.1c-1.17-0.01-2.17-0.83-2.4-1.98
		l-3.49-16.39h33.09L174.82,288.65z M176.37,305.01c0-1.61-1.3-2.91-2.91-2.91h-23.25c-1.61,0-2.91,1.3-2.91,2.91
		c0,1.61,1.3,2.91,2.91,2.91h0.47c0,0,0,0.23,0,0.39c0,6.21,5.03,11.24,11.24,11.24c6.21,0,11.24-5.03,11.24-11.24c0,0,0,0,0,0
		c0,0,0-0.27,0-0.39h0.31C175.06,307.89,176.35,306.6,176.37,305.01z M167.26,308.3c0,3-2.43,5.43-5.42,5.43s-5.43-2.43-5.43-5.42
		c0,0,0-0.01,0-0.01c0.02-0.13,0.02-0.26,0-0.39h11.01c-0.08,0.14-0.14,0.3-0.16,0.47V308.3z"/>
	<path class="st2" d="M176.16,289.39c-0.29,1.24-1.37,2.13-2.65,2.18h-23.49c-1.29-0.01-2.39-0.92-2.65-2.18l-3.84-18.07H180
		L176.16,289.39z"/>
</g>
<path class="st0" d="M11.93,258.46c-1.77,0-3.21,1.44-3.21,3.21v111c0,1.77,1.44,3.21,3.21,3.21s3.21-1.44,3.21-3.21v-111
	C15.14,259.9,13.71,258.46,11.93,258.46z"/>
<path class="st0" d="M363.93,295.46c-1.77,0-3.21,1.44-3.21,3.21v74c0,1.77,1.44,3.21,3.21,3.21s3.21-1.44,3.21-3.21v-74
	C367.14,296.9,365.71,295.46,363.93,295.46z"/>
<path class="st0" d="M331.93,331.46c-1.77,0-3.21,1.44-3.21,3.21v38c0,1.77,1.44,3.21,3.21,3.21s3.21-1.44,3.21-3.21v-38
	C335.14,332.9,333.71,331.46,331.93,331.46z"/>
<path class="st1" d="M331.93,383.46c-1.77,0-3.21,1.44-3.21,3.21v0c0,1.77,1.44,3.21,3.21,3.21s3.21-1.44,3.21-3.21v0
	C335.14,384.9,333.71,383.46,331.93,383.46z"/>
<path class="st1" d="M243.65,84.18c0,1.77-1.44,3.21-3.21,3.21h0c-1.77,0-3.21-1.44-3.21-3.21s1.44-3.21,3.21-3.21h0
	C242.21,80.97,243.65,82.4,243.65,84.18z"/>
<path class="st1" d="M263.65,84.18c0,1.77-1.44,3.21-3.21,3.21h0c-1.77,0-3.21-1.44-3.21-3.21s1.44-3.21,3.21-3.21h0
	C262.21,80.97,263.65,82.4,263.65,84.18z"/>
<path class="st1" d="M283.65,84.18c0,1.77-1.44,3.21-3.21,3.21h0c-1.77,0-3.21-1.44-3.21-3.21s1.44-3.21,3.21-3.21h0
	C282.21,80.97,283.65,82.4,283.65,84.18z"/>
<path class="st1" d="M303.65,84.18c0,1.77-1.44,3.21-3.21,3.21h0c-1.77,0-3.21-1.44-3.21-3.21s1.44-3.21,3.21-3.21h0
	C302.21,80.97,303.65,82.4,303.65,84.18z"/>
<path class="st1" d="M331.43,7.39c-1.77,0-3.21-1.44-3.21-3.21v0c0-1.77,1.44-3.21,3.21-3.21s3.21,1.44,3.21,3.21v0
	C334.64,5.95,333.21,7.39,331.43,7.39z"/>
<path class="st1" d="M331.43,27.39c-1.77,0-3.21-1.44-3.21-3.21v0c0-1.77,1.44-3.21,3.21-3.21s3.21,1.44,3.21,3.21v0
	C334.64,25.95,333.21,27.39,331.43,27.39z"/>
<path class="st1" d="M331.43,47.39c-1.77,0-3.21-1.44-3.21-3.21v0c0-1.77,1.44-3.21,3.21-3.21s3.21,1.44,3.21,3.21v0
	C334.64,45.95,333.21,47.39,331.43,47.39z"/>
<path class="st1" d="M331.43,67.39c-1.77,0-3.21-1.44-3.21-3.21v0c0-1.77,1.44-3.21,3.21-3.21s3.21,1.44,3.21,3.21v0
	C334.64,65.95,333.21,67.39,331.43,67.39z"/>
<path class="st1" d="M323.65,80.18c0,1.77-1.44,3.21-3.21,3.21h0c-1.77,0-3.21-1.44-3.21-3.21s1.44-3.21,3.21-3.21h0
	C322.21,76.97,323.65,78.4,323.65,80.18z"/>
<path class="st1" d="M334.65,64.18c0,1.77-1.44,3.21-3.21,3.21h0c-1.77,0-3.21-1.44-3.21-3.21s1.44-3.21,3.21-3.21h0
	C333.21,60.97,334.65,62.4,334.65,64.18z"/>
<path class="st1" d="M47.65,143.18c0,1.77-1.44,3.21-3.21,3.21h0c-1.77,0-3.21-1.44-3.21-3.21s1.44-3.21,3.21-3.21h0
	C46.21,139.97,47.65,141.4,47.65,143.18z"/>
<path class="st1" d="M67.65,143.18c0,1.77-1.44,3.21-3.21,3.21h0c-1.77,0-3.21-1.44-3.21-3.21s1.44-3.21,3.21-3.21h0
	C66.21,139.97,67.65,141.4,67.65,143.18z"/>
<path class="st1" d="M87.65,143.18c0,1.77-1.44,3.21-3.21,3.21h0c-1.77,0-3.21-1.44-3.21-3.21s1.44-3.21,3.21-3.21h0
	C86.21,139.97,87.65,141.4,87.65,143.18z"/>
<g>
	<path class="st1" d="M12.43,219.96c1.77,0,3.21,1.44,3.21,3.21v0c0,1.77-1.44,3.21-3.21,3.21s-3.21-1.44-3.21-3.21v0
		C9.22,221.4,10.66,219.96,12.43,219.96z"/>
	<path class="st1" d="M12.43,240.96c1.77,0,3.21,1.44,3.21,3.21v0c0,1.77-1.44,3.21-3.21,3.21s-3.21-1.44-3.21-3.21v0
		C9.22,242.4,10.66,240.96,12.43,240.96z"/>
	<path class="st1" d="M12.43,199.96c1.77,0,3.21,1.44,3.21,3.21v0c0,1.77-1.44,3.21-3.21,3.21s-3.21-1.44-3.21-3.21v0
		C9.22,201.4,10.66,199.96,12.43,199.96z"/>
	<path class="st1" d="M12.43,179.96c1.77,0,3.21,1.44,3.21,3.21v0c0,1.77-1.44,3.21-3.21,3.21s-3.21-1.44-3.21-3.21v0
		C9.22,181.4,10.66,179.96,12.43,179.96z"/>
	<path class="st1" d="M12.43,159.96c1.77,0,3.21,1.44,3.21,3.21v0c0,1.77-1.44,3.21-3.21,3.21s-3.21-1.44-3.21-3.21v0
		C9.22,161.4,10.66,159.96,12.43,159.96z"/>
	<path class="st1" d="M20.22,147.18c0-1.77,1.44-3.21,3.21-3.21h0c1.77,0,3.21,1.44,3.21,3.21s-1.44,3.21-3.21,3.21h0
		C21.66,150.39,20.22,148.95,20.22,147.18z"/>
	<path class="st1" d="M9.22,163.18c0-1.77,1.44-3.21,3.21-3.21h0c1.77,0,3.21,1.44,3.21,3.21s-1.44,3.21-3.21,3.21h0
		C10.66,166.39,9.22,164.95,9.22,163.18z"/>
</g>
<path class="st0" d="M293.93,231.47h-5.79v-5.79c0-1.77-1.44-3.21-3.21-3.21s-3.21,1.44-3.21,3.21v5.79h-5.79
	c-1.77,0-3.21,1.44-3.21,3.21s1.44,3.21,3.21,3.21h5.79v5.79c0,1.77,1.44,3.21,3.21,3.21s3.21-1.44,3.21-3.21v-5.79h5.79
	c1.77,0,3.21-1.44,3.21-3.21S295.71,231.47,293.93,231.47z"/>
<path class="st0" d="M158.72,336.56c0,1.77,1.44,3.21,3.21,3.21s3.21-1.44,3.21-3.21v-5c0-1.77-1.44-3.21-3.21-3.21
	s-3.21,1.44-3.21,3.21V336.56z"/>
<path class="st0" d="M158.72,356.79c0,1.77,1.44,3.21,3.21,3.21s3.21-1.44,3.21-3.21v-5c0-1.77-1.44-3.21-3.21-3.21
	s-3.21,1.44-3.21,3.21V356.79z"/>
<path class="st0" d="M158.72,377.02c0,1.77,1.44,3.21,3.21,3.21s3.21-1.44,3.21-3.21v-5c0-1.77-1.44-3.21-3.21-3.21
	s-3.21,1.44-3.21,3.21V377.02z"/>
<path class="st1" d="M155.73-0.11c0,3.38,2.75,6.14,6.14,6.14s6.14-2.75,6.14-6.14h4.72c0,5.99-4.87,10.86-10.86,10.86
	s-10.86-4.87-10.86-10.86H155.73z"/>
<path class="st1" d="M168.01,399.89c0-3.38-2.75-6.14-6.14-6.14s-6.14,2.75-6.14,6.14h-4.72c0-5.99,4.87-10.86,10.86-10.86
	s10.86,4.87,10.86,10.86H168.01z"/>
<path class="st0" d="M20.93,48.47h-5.79v-5.79c0-1.77-1.44-3.21-3.21-3.21s-3.21,1.44-3.21,3.21v5.79H2.93
	c-1.77,0-3.21,1.44-3.21,3.21s1.44,3.21,3.21,3.21h5.79v5.79c0,1.77,1.44,3.21,3.21,3.21s3.21-1.44,3.21-3.21v-5.79h5.79
	c1.77,0,3.21-1.44,3.21-3.21S22.71,48.47,20.93,48.47z"/>
</svg>
